<?xml version="1.0" standalone="no"?>
<!DOCTYPE svg PUBLIC "-//W3C//DTD SVG 20010904//EN"
 "http://www.w3.org/TR/2001/REC-SVG-20010904/DTD/svg10.dtd">
<svg version="1.0" xmlns="http://www.w3.org/2000/svg"
 width="537.000000pt" height="132.000000pt" viewBox="0 0 537.000000 132.000000"
 preserveAspectRatio="xMidYMid meet">

<g transform="translate(0.000000,132.000000) scale(0.100000,-0.100000)"
fill="#000000" stroke="none">
<path d="M289 1196 c-124 -44 -195 -144 -206 -289 -9 -121 49 -256 170 -398
107 -126 303 -269 367 -269 38 0 20 30 -36 56 -110 52 -304 231 -381 351 -58
91 -76 154 -71 253 5 98 24 144 85 202 48 47 79 58 156 58 72 0 138 -27 205
-83 l43 -37 52 40 c78 58 132 80 205 80 80 0 117 -16 169 -73 52 -57 75 -128
72 -227 -2 -75 1 -86 25 -77 18 7 31 84 22 140 -18 118 -73 206 -155 250 -114
63 -237 41 -375 -66 -7 -5 -38 9 -78 36 -93 63 -189 82 -269 53z"/>
<path d="M1722 1010 c-132 -28 -222 -156 -222 -315 0 -175 106 -300 265 -313
131 -10 242 55 278 163 26 74 25 75 -42 75 l-58 0 -18 -46 c-25 -65 -62 -86
-142 -82 -55 4 -67 8 -98 38 -43 42 -58 85 -58 171 0 51 6 79 24 115 35 69 67
89 144 89 57 0 67 -3 95 -30 17 -16 33 -40 36 -52 6 -21 12 -23 70 -23 l63 0
-14 45 c-18 63 -53 106 -111 137 -56 30 -145 42 -212 28z"/>
<path d="M3480 695 l0 -305 215 0 215 0 0 55 0 54 -152 3 -153 3 -3 248 -2
247 -60 0 -60 0 0 -305z"/>
<path d="M3980 955 l0 -45 60 0 60 0 0 45 0 45 -60 0 -60 0 0 -45z"/>
<path d="M4730 695 l0 -305 55 0 55 0 0 78 c0 71 2 81 25 102 14 13 27 21 31
18 3 -3 31 -48 63 -99 l57 -94 67 -3 c37 -2 67 0 67 3 0 3 -41 67 -91 142
l-91 136 78 78 79 79 -65 0 -64 0 -77 -82 -78 -83 -1 168 0 167 -55 0 -55 0 0
-305z"/>
<path d="M2299 839 c-63 -10 -106 -34 -129 -72 -34 -55 -28 -67 35 -67 32 0
55 4 55 10 0 6 11 22 25 35 45 46 145 27 145 -27 0 -46 -26 -60 -141 -73 -80
-10 -131 -41 -148 -92 -13 -37 -13 -45 3 -88 16 -40 26 -50 64 -67 56 -25 141
-20 183 11 35 26 49 26 49 1 0 -18 7 -20 59 -20 l59 0 -9 38 c-5 20 -9 105 -9
189 l0 151 -30 31 c-17 17 -45 32 -63 35 -73 11 -104 12 -148 5z m131 -269 c0
-46 -21 -95 -45 -104 -28 -10 -110 -7 -123 6 -18 18 -14 73 6 91 14 13 84 33
155 46 4 0 7 -17 7 -39z"/>
<path d="M2874 840 c-38 -9 -77 -37 -98 -70 l-15 -25 -1 43 0 42 -55 0 -55 0
0 -220 0 -220 54 0 54 0 4 133 c3 82 9 142 17 159 17 33 66 58 116 58 l36 0
-3 52 c-3 56 -7 60 -54 48z"/>
<path d="M3160 844 c-81 -13 -95 -18 -135 -55 -59 -55 -79 -109 -73 -200 7
-86 40 -141 108 -178 57 -32 156 -35 214 -7 34 17 96 86 96 108 0 4 -22 8 -50
8 -27 0 -50 -4 -50 -10 0 -17 -58 -40 -100 -40 -54 0 -79 14 -96 55 -27 67
-31 65 146 65 l160 0 0 39 c0 77 -44 157 -103 188 -33 17 -91 30 -117 27z m62
-95 c16 -9 48 -64 48 -84 0 -3 -47 -5 -105 -5 -69 0 -105 4 -105 11 0 20 33
67 54 78 28 13 83 13 108 0z"/>
<path d="M4406 839 c-16 -4 -44 -23 -63 -41 l-33 -32 0 32 0 32 -55 0 -55 0 0
-220 0 -220 55 0 55 0 1 113 c1 202 19 249 98 251 30 0 47 -5 63 -22 22 -21
23 -32 26 -182 l4 -160 55 0 55 0 -4 183 c-3 196 -9 218 -61 251 -29 18 -104
26 -141 15z"/>
<path d="M3980 610 l0 -220 60 0 60 0 0 220 0 220 -60 0 -60 0 0 -220z"/>
<path d="M907 654 c-4 -4 -7 -38 -7 -75 l0 -68 -72 -3 -73 -3 0 -80 0 -80 72
-3 72 -3 3 -72 3 -72 80 0 80 0 3 72 3 72 72 3 72 3 0 80 0 80 -72 3 -72 3 -3
72 -3 72 -75 3 c-42 1 -79 0 -83 -4z"/>
</g>
</svg>
